<?xml version="1.0" standalone="no"?>
<!DOCTYPE svg PUBLIC "-//W3C//DTD SVG 20010904//EN"
 "http://www.w3.org/TR/2001/REC-SVG-20010904/DTD/svg10.dtd">
<svg version="1.0" xmlns="http://www.w3.org/2000/svg"
 width="200.000000pt" height="200.000000pt" viewBox="0 0 200.000000 200.000000"
 preserveAspectRatio="xMidYMid meet">
<metadata>
Created by potrace 1.11, written by Peter Selinger 2001-2013
</metadata>
<g transform="translate(0.000000,200.000000) scale(0.100000,-0.100000)"
fill="#000000" stroke="none">
<path d="M1370 1573 c-28 -11 -59 -45 -65 -72 -5 -24 -10 -26 -40 -23 -28 3
-40 -1 -62 -25 -16 -16 -43 -35 -61 -42 -18 -8 -37 -22 -43 -32 -9 -18 -27
-19 -284 -19 -262 0 -276 -1 -295 -20 -19 -19 -20 -33 -20 -280 l0 -260 -29 0
c-32 0 -77 -31 -86 -60 -4 -11 -15 -20 -26 -20 -10 0 -28 -9 -39 -20 -11 -11
-27 -20 -35 -20 -9 0 -27 -11 -40 -25 -33 -32 -33 -78 0 -110 22 -23 32 -25
120 -25 57 0 95 4 95 10 0 6 -37 10 -90 10 -77 0 -93 3 -110 20 -11 11 -20 29
-20 40 0 25 34 60 58 60 9 0 23 9 30 21 11 17 20 20 43 15 24 -5 29 -2 29 15
0 26 43 69 71 69 11 0 34 -14 50 -31 24 -26 31 -29 49 -19 31 16 69 4 83 -27
10 -23 9 -28 -11 -41 -12 -8 -22 -22 -22 -30 0 -12 4 -11 16 6 19 27 38 28 64
2 46 -46 9 -100 -70 -100 -28 0 -50 -4 -50 -10 0 -5 25 -10 55 -10 46 0 60 4
80 25 26 25 32 63 15 96 -10 18 -7 19 60 19 l70 0 0 -38 c0 -43 -14 -62 -45
-62 -25 0 -55 -29 -55 -53 0 -8 7 -23 16 -31 13 -14 48 -16 223 -16 189 0 209
2 224 18 10 10 17 25 17 34 0 20 -32 48 -56 48 -30 0 -44 20 -44 62 l0 38 160
0 c147 0 162 2 180 20 19 19 20 33 20 330 0 377 11 350 -141 350 -91 0 -100 2
-88 16 7 9 21 13 32 10 13 -3 26 3 39 19 10 13 28 26 41 28 l22 4 -22 2 c-13
0 -32 -8 -43 -19 -11 -11 -29 -20 -40 -20 -11 0 -28 -9 -37 -20 -14 -17 -30
-20 -88 -20 l-70 1 24 19 c13 11 33 20 46 20 14 0 26 9 33 25 15 32 55 42 87
21 l25 -16 0 36 c0 47 45 94 90 94 34 0 90 -46 90 -74 0 -20 9 -20 34 -1 30
23 74 18 101 -10 27 -26 33 -65 12 -65 -15 0 -47 -31 -47 -45 0 -5 9 1 20 13
12 12 32 22 46 22 35 0 74 -42 74 -80 0 -19 -9 -40 -25 -55 -21 -22 -33 -25
-100 -25 -43 0 -75 -4 -75 -10 0 -16 137 -12 169 4 28 15 51 53 51 87 0 31
-27 77 -50 84 -12 4 -28 24 -37 46 -24 61 -81 82 -145 54 -13 -5 -18 -3 -18 7
0 40 -93 80 -140 61z m88 -255 c9 -9 12 -77 12 -245 l0 -233 -470 0 -470 0 0
233 c0 168 3 236 12 245 17 17 899 17 916 0z m10 -560 l-3 -63 -392 -3 c-386
-2 -392 -2 -398 18 -10 32 -50 53 -89 47 -38 -6 -56 6 -56 40 l0 23 470 0 471
0 -3 -62z m-358 -146 c0 -44 21 -69 66 -81 16 -4 29 -14 29 -22 0 -12 -35 -14
-199 -17 -126 -1 -203 1 -210 8 -20 20 14 34 99 38 89 5 119 22 37 22 l-47 0
3 45 4 45 109 0 109 0 0 -38z"/>
<path d="M580 1170 c0 -67 4 -110 10 -110 6 0 10 40 10 100 l0 100 390 0 c253
0 390 4 390 10 0 7 -140 10 -400 10 l-400 0 0 -110z"/>
<path d="M1400 1040 l0 -140 -400 0 c-393 0 -400 0 -400 20 0 11 -4 20 -10 20
-5 0 -10 -13 -10 -30 l0 -30 420 0 420 0 0 150 c0 93 -4 150 -10 150 -6 0 -10
-53 -10 -140z"/>
<path d="M977 784 c-13 -13 -7 -52 8 -58 27 -10 46 5 43 33 -3 26 -35 41 -51
25z m41 -27 c2 -12 -3 -17 -17 -17 -12 0 -21 6 -21 13 0 31 32 34 38 4z"/>
<path d="M1000 550 c0 -5 23 -10 50 -10 28 0 50 5 50 10 0 6 -22 10 -50 10
-27 0 -50 -4 -50 -10z"/>
<path d="M480 530 c0 -5 5 -10 10 -10 6 0 10 5 10 10 0 6 -4 10 -10 10 -5 0
-10 -4 -10 -10z"/>
<path d="M520 530 c0 -5 9 -10 20 -10 11 0 20 5 20 10 0 6 -9 10 -20 10 -11 0
-20 -4 -20 -10z"/>
</g>
</svg>
